<?xml version="1.0" encoding="utf-8"?>
<!-- Generator: Adobe Illustrator 16.0.0, SVG Export Plug-In . SVG Version: 6.00 Build 0)  -->
<!DOCTYPE svg PUBLIC "-//W3C//DTD SVG 1.1//EN" "http://www.w3.org/Graphics/SVG/1.1/DTD/svg11.dtd">
<svg version="1.1" id="Layer_1" xmlns="http://www.w3.org/2000/svg" xmlns:xlink="http://www.w3.org/1999/xlink" x="0px" y="0px"
	 width="600px" height="600px" viewBox="0 0 600 600" enable-background="new 0 0 600 600" xml:space="preserve">
<path fill-rule="evenodd" clip-rule="evenodd" d="M118.761,421.3c3.529,1.425,7.206,2.563,10.551,4.33
	c5.834,3.084,11.013,5.171,15.315-2.457c0.854-1.521,4.428-2.266,6.667-2.119c17.527,1.152,35.034,3.7,52.546,3.688
	c19.501-0.013,39.133-1.269,58.461-3.844c17.632-2.347,34.993-6.934,52.338-11.088c4.574-1.098,8.655-4.247,12.477-7.97
	c-45.151,13.464-90.316,24.171-137.903,15.261c1.672-0.438,3.337-1.238,5.013-1.259c16.341-0.201,32.748,0.587,49.004-0.645
	c13.622-1.029,27.567-2.827,40.496-6.993c33.24-10.715,66.693-21.301,98.747-35.02c30.237-12.939,56.083-32.887,67.84-65.604
	c2.653-7.384,3.605-16.957,1.291-24.233c-5.508-17.323-11.062-35.467-21.009-50.327c-11.52-17.219-30.411-27.567-50.335-33.958
	c-12.784-4.101-26.064-7.53-39.362-8.881c-10.565-1.072-21.631,0.704-32.242,2.549c-27.138,4.718-54.372,9.292-79.471,21.68
	c-9.183,4.531-18.597,8.599-27.95,12.78c-14.355,6.419-23.607,18.277-32.912,30.218c-1.9,2.439-5.256,3.784-8.031,5.488
	c-1.052,0.645-2.865,0.507-3.47,1.347c-7.208,9.995-14.986,19.7-20.934,30.413c-2.029,3.655,0.321,9.988,1.279,14.98
	c0.833,4.341,2.525,8.515,4.334,14.363c-3.191-1.367-4.924-2.107-8.056-3.449c0.698,3.563,1.235,6.304,1.761,8.992
	c-27.951-11.012-27.85-25.687-16.901-61.646c-2.496,3.188-4.992,6.381-7.49,9.569c-0.807-0.271-1.613-0.54-2.419-0.81
	c1.941-5.563,3.149-11.524,5.938-16.623c21.797-39.876,52.885-70.337,94.771-88.289c33.535-14.373,68.653-23.36,105.487-24.723
	c23.346-0.865,45.585,3.756,68.449,8.013c33.217,6.183,57.279,25.041,80.284,46.343c12.814,11.865,21.845,27.329,23.137,46.053
	c-2.007-3.09-4.013-6.179-7.639-11.757c-0.342,4.446-0.932,6.324-0.541,7.968c2.83,12.005,5.64,24.022,8.97,35.894
	c0.876,3.121,4.62,5.521,5.244,8.618c5.675,28.104-5.838,51.754-23.428,71.386c-12.127,13.531-28.944,22.925-43.914,33.82
	c-11.435,8.323-22.633,17.315-35.092,23.778c-11.527,5.979-24.34,10.047-37.03,13.108c-29.103,7.024-58.273,14.204-87.808,18.831
	c-20.418,3.2-41.482,2.465-62.27,3.052c-11.698,0.332-23.443,0.156-35.125-0.544c-5.684-0.343-11.362-2.1-16.846-3.837
	c-2.328-0.74-7.902-0.991-3.542-6.157c-1.936-1.463-3.731-3.178-5.83-4.346c-8.194-4.564-16.483-8.955-24.736-13.408
	C117.504,422.992,118.133,422.146,118.761,421.3z"/>
<path fill-rule="evenodd" clip-rule="evenodd" d="M242.004,370.118c1.105-13.059,8.124-25.017,13.615-36.861
	c7.249-15.634,10.907-31.472,8.48-48.63c-0.492-3.482-0.325-7.066-0.337-10.604c-0.077-21.594,7.408-33.904,24.021-39.597
	c18.154-6.218,42.337,0.12,53.009,13.899c6.782,8.757,1.067,27.118-10.717,31.489c-8.034,2.981-16.805,4.036-25.294,5.705
	c-21.75,4.277-30.355,18.549-23.743,39.614c2.787,8.874,6.488,17.585,8.137,26.668c2.398,13.217-2.175,24.843-12.172,33.836
	c-6.833,6.147-14.896,7.054-23.336,3.218C245.854,385.297,241.272,378.756,242.004,370.118z"/>
<path fill-rule="evenodd" clip-rule="evenodd" d="M335.233,231.224c0.085-13.015,6.888-23.252,15.146-23.245
	c8.434,0.01,10.808,5.773,10.986,12.817c0.271,10.808-7.401,21.157-15.586,21.12C338.319,241.883,334.495,238.114,335.233,231.224z"
	/>
<path fill-rule="evenodd" clip-rule="evenodd" d="M317.069,222.604c0.056-8.537,4.517-15.253,9.934-15.249
	c5.534,0.007,7.09,3.786,7.208,8.406c0.179,7.092-4.856,13.879-10.224,13.857C319.094,229.596,316.586,227.126,317.069,222.604z"/>
<path fill-rule="evenodd" clip-rule="evenodd" d="M299.461,222.431c-0.423-7.206,2.971-13.119,7.545-13.414
	c4.667-0.294,6.188,2.807,6.54,6.697c0.542,5.974-3.333,11.978-7.862,12.255C301.554,228.219,299.303,226.272,299.461,222.431z"/>
<path fill-rule="evenodd" clip-rule="evenodd" d="M282.599,226.761c-0.403-6.873,2.832-12.515,7.198-12.797
	c4.451-0.279,5.901,2.679,6.238,6.39c0.516,5.697-3.18,11.424-7.5,11.689C284.596,232.282,282.448,230.424,282.599,226.761z"/>
<path fill-rule="evenodd" clip-rule="evenodd" d="M268.244,234.143c-0.645-5.445,1.664-10.08,5.121-10.508
	c3.527-0.433,4.818,1.853,5.259,4.786c0.677,4.509-1.994,9.232-5.418,9.645C270.087,238.438,268.294,237.061,268.244,234.143z"/>
</svg>
