<svg xmlns="http://www.w3.org/2000/svg" xmlns:xlink="http://www.w3.org/1999/xlink" version="1.1" width="403.3750045945244" height="320.2500057121116" enable-background="new 0 0 600 600" xml:space="preserve"><rect id="backgroundrect" width="100%" height="100%" x="0" y="0" fill="none" stroke="none"/>







<g class="currentLayer"><title>Layer 1</title><path fill-rule="evenodd" clip-rule="evenodd" d="M18.240171752929683,279.1125 c3.529,1.425 7.206,2.563 10.551,4.33 c5.834,3.084 11.013,5.171 15.315,-2.457 c0.8540000000000001,-1.521 4.428,-2.266 6.667,-2.119 c17.527,1.1520000000000001 35.034,3.7 52.546,3.688 c19.501,-0.013000000000000003 39.133,-1.2690000000000001 58.461,-3.8440000000000003 c17.632,-2.347 34.993,-6.934 52.338,-11.088 c4.574,-1.098 8.655,-4.247 12.477,-7.97 c-45.151,13.464 -90.316,24.171 -137.903,15.261 c1.6720000000000002,-0.43800000000000006 3.337,-1.238 5.013,-1.259 c16.341,-0.201 32.748,0.5870000000000001 49.004,-0.6450000000000001 c13.622,-1.029 27.567,-2.827 40.496,-6.993 c33.24,-10.715 66.693,-21.301 98.747,-35.02 c30.237,-12.939 56.083,-32.887 67.84,-65.604 c2.653,-7.384 3.605,-16.957 1.291,-24.233 c-5.508,-17.323 -11.062,-35.467 -21.009,-50.327 c-11.52,-17.219 -30.411,-27.567 -50.335,-33.958 c-12.784,-4.101 -26.064,-7.53 -39.362,-8.881 c-10.565,-1.072 -21.631,0.7040000000000001 -32.242,2.549 c-27.138,4.718 -54.372,9.292 -79.471,21.68 c-9.183,4.531 -18.597,8.599 -27.95,12.78 c-14.355,6.4190000000000005 -23.607,18.277 -32.912,30.218 c-1.9,2.439 -5.256,3.784 -8.031,5.488 c-1.052,0.6450000000000001 -2.865,0.507 -3.47,1.347 c-7.208,9.995 -14.986,19.7 -20.934,30.413 c-2.029,3.6550000000000002 0.32100000000000006,9.988 1.279,14.98 c0.8330000000000001,4.341 2.525,8.515 4.334,14.363 c-3.191,-1.367 -4.924,-2.107 -8.056,-3.449 c0.6980000000000002,3.563 1.235,6.304 1.7610000000000001,8.992 c-27.951,-11.012 -27.85,-25.687 -16.901,-61.646 c-2.496,3.188 -4.992,6.381 -7.49,9.569 c-0.807,-0.271 -1.613,-0.54 -2.419,-0.81 c1.941,-5.563 3.149,-11.524000000000001 5.938,-16.623 c21.797,-39.876 52.885,-70.337 94.771,-88.289 c33.535,-14.373 68.653,-23.36 105.487,-24.723 c23.346,-0.8650000000000001 45.585,3.7560000000000002 68.449,8.013 c33.217,6.183 57.279,25.041 80.284,46.343 c12.814,11.865 21.845,27.329 23.137,46.053 c-2.007,-3.09 -4.013,-6.179 -7.639,-11.757 c-0.3420000000000001,4.446 -0.932,6.324 -0.541,7.968 c2.83,12.005 5.640000000000001,24.022 8.97,35.894 c0.8760000000000001,3.121 4.62,5.521 5.244,8.618 c5.675,28.104 -5.838,51.754 -23.428,71.386 c-12.127,13.531 -28.944,22.925 -43.914,33.82 c-11.435,8.323 -22.633,17.315 -35.092,23.778 c-11.527,5.979 -24.34,10.047 -37.03,13.108 c-29.103,7.024 -58.273,14.204 -87.808,18.831 c-20.418,3.2 -41.482,2.465 -62.27,3.052 c-11.698,0.3320000000000001 -23.443,0.15600000000000003 -35.125,-0.544 c-5.684,-0.3430000000000001 -11.362,-2.1 -16.846,-3.837 c-2.3280000000000003,-0.7400000000000001 -7.902,-0.991 -3.542,-6.157 c-1.936,-1.463 -3.731,-3.178 -5.83,-4.346 c-8.194,-4.564 -16.483,-8.955 -24.736,-13.408 C16.983171752929692,280.8045 17.612171752929683,279.9585 18.240171752929683,279.1125 z" id="svg_1" class="" fill="#d50b0b" fill-opacity="1" stroke="#d50b0b" stroke-opacity="1" opacity="1" filter=""/><path fill-rule="evenodd" clip-rule="evenodd" d="M141.48317175292968,227.9305 c1.105,-13.059 8.124,-25.017 13.615,-36.861 c7.249,-15.634 10.907,-31.472 8.48,-48.63 c-0.49200000000000005,-3.482 -0.32500000000000007,-7.066 -0.3370000000000001,-10.604 c-0.07700000000000001,-21.594 7.408,-33.904 24.021,-39.597 c18.154,-6.218 42.337,0.12000000000000001 53.009,13.899000000000001 c6.782,8.757 1.067,27.118 -10.717,31.489 c-8.034,2.981 -16.805,4.036 -25.294,5.705 c-21.75,4.277 -30.355,18.549 -23.743,39.614 c2.787,8.874 6.488,17.585 8.137,26.668 c2.398,13.217 -2.175,24.843 -12.172,33.836 c-6.833,6.147 -14.896,7.054 -23.336,3.218 C145.3331717529297,243.10950000000003 140.75117175292968,236.56849999999997 141.48317175292968,227.9305 z" id="svg_2" class="" fill="#d50b0b" fill-opacity="1" stroke="#d50b0b" stroke-opacity="1"/><path fill-rule="evenodd" clip-rule="evenodd" d="M234.7121717529297,89.03649999999999 c0.08500000000000002,-13.015 6.888,-23.252 15.146,-23.245 c8.434,0.010000000000000002 10.808,5.773 10.986,12.817 c0.271,10.808 -7.401,21.157 -15.586,21.12 C237.7981717529297,99.69550000000001 233.9741717529297,95.9265 234.7121717529297,89.03649999999999 z" id="svg_3" class=""/><path fill-rule="evenodd" clip-rule="evenodd" d="M234.7121717529297,89.03649999999999 c0.08500000000000002,-13.015 6.888,-23.252 15.146,-23.245 c8.434,0.010000000000000002 10.808,5.773 10.986,12.817 c0.271,10.808 -7.401,21.157 -15.586,21.12 C237.7981717529297,99.69550000000001 233.9741717529297,95.9265 234.7121717529297,89.03649999999999 z" class="" id="svg_8" fill="#d50b0b" fill-opacity="1" stroke="#d50b0b" stroke-opacity="1"/><path fill-rule="evenodd" clip-rule="evenodd" d="M216.5481717529297,80.41650000000001 c0.05600000000000001,-8.537 4.517,-15.253 9.934,-15.249 c5.534,0.007000000000000002 7.09,3.786 7.208,8.406 c0.17900000000000002,7.092 -4.856,13.879 -10.224,13.857 C218.57317175292968,87.4085 216.0651717529297,84.9385 216.5481717529297,80.41650000000001 z" id="svg_4" class="" fill="#d50b0b" fill-opacity="1" stroke="#d50b0b" stroke-opacity="1"/><path fill-rule="evenodd" clip-rule="evenodd" d="M198.9401717529297,80.24350000000001 c-0.42300000000000004,-7.206 2.971,-13.119 7.545,-13.414 c4.667,-0.29400000000000004 6.188,2.807 6.54,6.697 c0.542,5.974 -3.333,11.978 -7.862,12.255 C201.03317175292966,86.0315 198.78217175292968,84.08449999999999 198.9401717529297,80.24350000000001 z" id="svg_5" class="" fill="#d50b0b" fill-opacity="1" stroke="#d50b0b" stroke-opacity="1"/><path fill-rule="evenodd" clip-rule="evenodd" d="M182.07817175292968,84.5735 c-0.403,-6.873 2.832,-12.515 7.198,-12.797 c4.451,-0.279 5.901,2.6790000000000003 6.238,6.39 c0.516,5.697 -3.18,11.424 -7.5,11.689 C184.0751717529297,90.09450000000001 181.92717175292967,88.2365 182.07817175292968,84.5735 z" id="svg_6" class="" fill="#d50b0b" fill-opacity="1" stroke="#d50b0b" stroke-opacity="1"/><path fill-rule="evenodd" clip-rule="evenodd" d="M167.72317175292972,91.9555 c-0.6450000000000001,-5.445 1.6640000000000001,-10.08 5.121,-10.508 c3.527,-0.43300000000000005 4.818,1.8530000000000002 5.259,4.786 c0.6770000000000002,4.509 -1.994,9.232 -5.418,9.645 C169.56617175292968,96.25049999999999 167.77317175292967,94.8735 167.72317175292972,91.9555 z" id="svg_7" class="" fill="#d50b0b" fill-opacity="1" stroke="#d50b0b" stroke-opacity="1"/></g><defs><filter xmlns:inkscape="http://www.inkscape.org/namespaces/inkscape" id="f136" inkscape:label="Comics draft" inkscape:menu-tooltip="Draft painted cartoon shading with a glassy look" inkscape:menu="Non realistic 3D shaders" height="1.5" y="-0.25" width="1.5" x="-0.25" color-interpolation-filters="sRGB">
            <feGaussianBlur stdDeviation="7" result="result8"/>
            <feComposite in2="result8" result="result6" operator="xor" in="result8"/>
            <feDisplacementMap in="SourceGraphic" in2="result6" xChannelSelector="A" yChannelSelector="A" scale="100" result="result4"/>
            <feComposite in2="result4" result="result2" operator="arithmetic" in="SourceGraphic" k1="1"/>
            <feComposite result="fbSourceGraphic" in="result6" operator="in" in2="result2"/>
        </filter></defs></svg>